<?xml version="1.0" encoding="UTF-8"?>
<svg width="82px" height="82px" viewBox="0 0 82 82" version="1.1" xmlns="http://www.w3.org/2000/svg" xmlns:xlink="http://www.w3.org/1999/xlink">
    <!-- Generator: Sketch 50.2 (55047) - http://www.bohemiancoding.com/sketch -->
    <title>icon</title>
    <desc>Created with Sketch.</desc>
    <defs></defs>
    <g id="HP---Desktop" stroke="none" stroke-width="1" fill="none" fill-rule="evenodd">
        <g id="Desktop---Not-logged" transform="translate(-721.000000, -2675.000000)" fill="#DDDFE2">
            <g id="Key-points-3" transform="translate(82.000000, 2550.000000)">
                <g id="Number-2" transform="translate(578.000000, 125.000000)">
                    <g id="icon" transform="translate(102.000000, 41.000000) rotate(-360.000000) translate(-102.000000, -41.000000) translate(61.000000, 0.000000)">
                        <g id="World" transform="translate(22.483871, 14.548387)">
                            <path d="M24.9967742,30.2071732 L24.9967742,24.9971313 L30.2068161,24.9971313 C28.9534065,27.1557813 27.1536387,28.9537635 24.9967742,30.2071732 M14.283871,31.6694845 L14.283871,24.9971313 L21.4258065,24.9971313 L21.4258065,31.6694845 C20.2813113,31.9658748 19.0886081,32.1390668 17.8548387,32.1390668 C16.6192839,32.1390668 15.4283661,31.9658748 14.283871,31.6694845 M5.50286129,24.9971313 L10.7129032,24.9971313 L10.7129032,30.2071732 C8.55425323,28.9537635 6.75627097,27.1557813 5.50286129,24.9971313 M4.04055,14.2842281 L10.7129032,14.2842281 L10.7129032,21.4261635 L4.04055,21.4261635 C3.74415968,20.2834539 3.57096774,19.0907506 3.57096774,17.8551958 C3.57096774,16.6214265 3.74415968,15.4287232 4.04055,14.2842281 M10.7129032,5.50500387 L10.7129032,10.7132603 L5.50286129,10.7132603 C6.75627097,8.55461032 8.55425323,6.75841355 10.7129032,5.50500387 M31.6673419,21.4261635 L24.9967742,21.4261635 L24.9967742,17.8551958 L21.4258065,17.8551958 L21.4258065,21.4261635 L14.283871,21.4261635 L14.283871,14.2842281 L17.8548387,14.2842281 L17.8548387,10.7132603 L14.283871,10.7132603 L14.283871,4.0409071 C15.4283661,3.74630226 16.6192839,3.57132484 17.8548387,3.57132484 L17.8548387,0.000357096774 C8.00789516,0.000357096774 0,8.01003774 0,17.8551958 C0,27.7021394 8.00789516,35.7100345 17.8548387,35.7100345 C27.6999968,35.7100345 35.7096774,27.7021394 35.7096774,17.8551958 L32.1387097,17.8551958 C32.1387097,19.0907506 31.9637323,20.2834539 31.6673419,21.4261635" id="Fill-648"></path>
                            <path d="M24.9967742,30.2071732 L24.9967742,24.9971313 L30.2068161,24.9971313 C28.9534065,27.1557813 27.1536387,28.9537635 24.9967742,30.2071732 M14.283871,31.6694845 L14.283871,24.9971313 L21.4258065,24.9971313 L21.4258065,31.6694845 C20.2813113,31.9658748 19.0886081,32.1390668 17.8548387,32.1390668 C16.6192839,32.1390668 15.4283661,31.9658748 14.283871,31.6694845 M5.50286129,24.9971313 L10.7129032,24.9971313 L10.7129032,30.2071732 C8.55425323,28.9537635 6.75627097,27.1557813 5.50286129,24.9971313 M4.04055,14.2842281 L10.7129032,14.2842281 L10.7129032,21.4261635 L4.04055,21.4261635 C3.74415968,20.2834539 3.57096774,19.0907506 3.57096774,17.8551958 C3.57096774,16.6214265 3.74415968,15.4287232 4.04055,14.2842281 M10.7129032,5.50500387 L10.7129032,10.7132603 L5.50286129,10.7132603 C6.75627097,8.55461032 8.55425323,6.75841355 10.7129032,5.50500387 M31.6673419,21.4261635 L24.9967742,21.4261635 L24.9967742,17.8551958 L21.4258065,17.8551958 L21.4258065,21.4261635 L14.283871,21.4261635 L14.283871,14.2842281 L17.8548387,14.2842281 L17.8548387,10.7132603 L14.283871,10.7132603 L14.283871,4.0409071 C15.4283661,3.74630226 16.6192839,3.57132484 17.8548387,3.57132484 L17.8548387,0.000357096774 C8.00789516,0.000357096774 0,8.01003774 0,17.8551958 C0,27.7021394 8.00789516,35.7100345 17.8548387,35.7100345 C27.6999968,35.7100345 35.7096774,27.7021394 35.7096774,17.8551958 L32.1387097,17.8551958 C32.1387097,19.0907506 31.9637323,20.2834539 31.6673419,21.4261635" id="Fill-648-Copy" transform="translate(17.854839, 17.855196) rotate(-90.000000) translate(-17.854839, -17.855196) "></path>
                        </g>
                        <path d="M6.87741935,6.87741935 L6.87741935,58.7225806 L24.6,58.7225806 L24.6,65.6 L35.5347,58.7225806 L75.1225806,58.7225806 L75.1225806,6.87741935 L6.87741935,6.87741935 Z M16.4,82 L16.4,65.6 L8.2,65.6 C3.6777,65.6 0,61.9223 0,57.4 L0,8.2 C0,3.6777 3.6777,0 8.2,0 L73.8,0 C78.3223,0 82,3.6777 82,8.2 L82,57.4 C82,61.9223 78.3223,65.6 73.8,65.6 L38.2653,65.6 L16.4,82 Z" id="Fill-316" transform="translate(41.000000, 41.000000) rotate(-360.000000) translate(-41.000000, -41.000000) "></path>
                    </g>
                </g>
            </g>
        </g>
    </g>
</svg>