<svg id="Calque_1" data-name="Calque 1" xmlns="http://www.w3.org/2000/svg" viewBox="0 0 371 133"><defs><style>.cls-1{fill:#9a9fa9;fill-rule:evenodd;}</style></defs><title>Plan de travail 1 copie 6</title><path class="cls-1" d="M127.21,65.9s.56-6.94.69-8.61c.11-1.28-.05-4.66-3.13-4.66H111l-9.06,24.72h10.8l6.57-17.88-1.39,17.88h9.6l11.77-17.57-6.42,17.57h10.87l9.06-24.72H135.92L127.21,65.9Zm60.91-13c-7.22,1.48-17,6.81-16.89,16.53.06,5.61,6.8,8.72,14.53,8.51a62,62,0,0,0,9-1h0l2.87-7.49h0c-3.8.6-7.44,1.52-10.31.37-5.15-2.07-2-7.46,1.67-9.13a14.58,14.58,0,0,1,6.42-1.39c1.09,0,3.75.07,4.78,2.44h0L203.79,53h0a37.31,37.31,0,0,0-15.67-.14ZM293.67,77.35h11.92l9.06-24.72H302.72l-9.05,24.72Zm-143.12,0h11.93l9.05-24.72H159.62l-9.07,24.72ZM223.5,61.53h-6l3.26-8.9H209.4l-9,24.72h11.32L214.78,69h6l-3.09,8.38h11.35l9.07-24.72H226.78l-3.28,8.9Zm63.92-8.9H275.83l-9.06,24.72h23.28l3-8.21H281.38l6-16.51Zm50.4,17c.08-1.7.42-8.45.63-12.34a4.74,4.74,0,0,0-1-3.63,3.26,3.26,0,0,0-2.16-1H321.42l-9.05,24.72h10.05l6.42-17.5-.76,17.5H345L354,52.63H344l-6.21,17Zm-102,7.76h25.13l2.43-6.67H249.48l1-2.75h12.94l2.23-6.08h-13l1-2.75H267.3l2.4-6.47H244.84l-9.05,24.72Z"/><path class="cls-1" d="M63.61,50.61a4.14,4.14,0,0,0-1.15-2.88,1.77,1.77,0,0,0-1.35-.47C59.8,47.37,58.83,49,58.9,51A4.1,4.1,0,0,0,60,53.82a1.85,1.85,0,0,0,1.35.51C62.7,54.24,63.67,52.61,63.61,50.61Zm-.93,1.71s0,0,0,0,0,0,0,0a4.1,4.1,0,0,0,0-.61c-.05-1.23-.71-2.19-1.47-2.17s-1.33,1-1.27,2.25a3.52,3.52,0,0,0,.13.82s0,0,0,0,0,0,0,0a3.86,3.86,0,0,1-.44-1.68c-.06-1.53.68-2.89,1.61-3a1.17,1.17,0,0,1,.87.31A3.38,3.38,0,0,1,63,50.63,4.32,4.32,0,0,1,62.68,52.32Z"/><path class="cls-1" d="M67.83,56a1.15,1.15,0,0,0-.44.26c-3.5-.63-4.59.32-6.47.27,0-.23-.06-.56-.36-.53-.11,0-.26.27-.32.35-.49.73-.68,1.14-.49,1.31s.46-.11.71-.41a2.71,2.71,0,0,1,1.7.44c.59.4,1.79,1.92,3,1.38.88-.4,1.71-1.91,2.35-1.91a4.94,4.94,0,0,0,.76,0C68.45,57.06,68.16,55.89,67.83,56Zm-2.7,2.37c-1.07.55-1.71-.84-2.75-1.3a11.76,11.76,0,0,1,4.36-.17C66.39,57.15,65.42,58.19,65.13,58.34Z"/><path class="cls-1" d="M69.11,50.38a4.09,4.09,0,0,0-1.22-2.84,1.65,1.65,0,0,0-1.25-.41c-1.24.14-2.1,1.75-2,3.67a4.18,4.18,0,0,0,1.22,2.82,1.73,1.73,0,0,0,1.25.45C68.39,54,69.25,52.34,69.11,50.38Zm-1,2.22h0s0,0,0,0a3.37,3.37,0,0,0,.14-1.13c0-1.24-.69-2.2-1.46-2.15s-1.19.83-1.28,1.84a.09.09,0,0,1,0,.06l0,0c0-.13,0-.26,0-.4-.11-1.49.52-2.83,1.38-2.93a1,1,0,0,1,.78.27,3.45,3.45,0,0,1,1,2.33A4.08,4.08,0,0,1,68.06,52.6Z"/><path class="cls-1" d="M26.18,52.19c-.43,0-.85-.29-1.27-.31-.6,0-1.24.17-1.22.31s.78.09,1.49.42c.44.32,1.19.82,1.3.71S26.32,52.49,26.18,52.19Zm0,0c-.43,0-.85-.29-1.27-.31-.6,0-1.24.17-1.22.31s.78.09,1.49.42c.44.32,1.19.82,1.3.71S26.32,52.49,26.18,52.19Zm0,0c-.43,0-.85-.29-1.27-.31-.6,0-1.24.17-1.22.31s.78.09,1.49.42c.44.32,1.19.82,1.3.71S26.32,52.49,26.18,52.19Zm0,0c-.43,0-.85-.29-1.27-.31-.6,0-1.24.17-1.22.31s.78.09,1.49.42c.44.32,1.19.82,1.3.71S26.32,52.49,26.18,52.19Zm0,0c-.43,0-.85-.29-1.27-.31-.6,0-1.24.17-1.22.31s.78.09,1.49.42c.44.32,1.19.82,1.3.71S26.32,52.49,26.18,52.19Zm0,0c-.43,0-.85-.29-1.27-.31-.6,0-1.24.17-1.22.31s.78.09,1.49.42c.44.32,1.19.82,1.3.71S26.32,52.49,26.18,52.19Zm0,0c-.43,0-.85-.29-1.27-.31-.6,0-1.24.17-1.22.31s.78.09,1.49.42c.44.32,1.19.82,1.3.71S26.32,52.49,26.18,52.19Zm0,0c-.43,0-.85-.29-1.27-.31-.6,0-1.24.17-1.22.31s.78.09,1.49.42c.44.32,1.19.82,1.3.71S26.32,52.49,26.18,52.19Zm0,0c-.43,0-.85-.29-1.27-.31-.6,0-1.24.17-1.22.31s.78.09,1.49.42c.44.32,1.19.82,1.3.71S26.32,52.49,26.18,52.19Zm0,0c-.43,0-.85-.29-1.27-.31-.6,0-1.24.17-1.22.31s.78.09,1.49.42c.44.32,1.19.82,1.3.71S26.32,52.49,26.18,52.19ZM92.26,87a7,7,0,0,0-2.39-5.66c.78-1.66,1.64-6.56-2-9.63,1.42-6.08-4.68-9.49-8-9.8a14.35,14.35,0,0,0-6.7-2.19,7.51,7.51,0,0,0-1-9.51,8,8,0,0,0-5.54-7.68c-1.13-2.81-7.34-2.35-8.06.24a8.76,8.76,0,0,0-5.38,8.9c-2.2,2.36-2.1,6.44-.07,9a18.23,18.23,0,0,0-6.46,1.24h0l-.08,0a8.77,8.77,0,0,0-5-.83,10.76,10.76,0,0,0-2.27-1,7.68,7.68,0,0,0-2.54-2.37,6.11,6.11,0,0,0-3.16-3.7A7,7,0,0,0,33,50.47a4.89,4.89,0,0,1-.35-3.58,1.75,1.75,0,0,0-.27-2.46c-2-2-3.92-.92-4.49,0-1.89-3.36-4-4.26-5.32-3.82-1.68-1.32-4.35-.5-4.31,1.11-1.1.77-1.85,1.14-.14,4.28-.34,6.57.39,8.52,4.69,12.05A5.45,5.45,0,0,0,22,64.34a8.93,8.93,0,0,0,3.42,7.77c.6,4.53,5,7.21,7.83,7.81a10.21,10.21,0,0,0,7.46,4.48,8.38,8.38,0,0,0,1.43,3.65,11.29,11.29,0,0,0,.18,7.11h2.51a9.25,9.25,0,0,1-.69-5.57A25.65,25.65,0,0,0,54.5,95.16H75a20.73,20.73,0,0,0,6.54-3.3,7.13,7.13,0,0,1-.3,3.3h2.07a3,3,0,0,1,0-.85c3.67-.45,6.91-2.22,8.12-5.42a4.87,4.87,0,0,1,2.78,6.27h2A6.74,6.74,0,0,0,92.26,87ZM86.85,73.48c.77.49,3.86,6.34-.88,9.18a8.15,8.15,0,0,0-1.65-5A12.7,12.7,0,0,0,86.85,73.48Zm-1.65-.3c-.08-1.44-.54-4.92-3.07-6.63a2.31,2.31,0,0,0-.15-1.8A5.72,5.72,0,0,1,85.2,73.18Zm-3.77-4.87c7.22,9.88-5.65,15.81-17.75,15.61-8.06-.12-11.65-2.66-13.32-4a15.08,15.08,0,0,0,2-8.25C62.9,75.85,78.19,72.28,81.43,68.31ZM56.1,63.41c.5.25,1,.27,1.15,0s-.1-.54-.43-.73c-.9-.52-.44-1.28.16-1.66.32-.21.06-.35.06-.35-5-2.27-3.51-8.65.12-8.93a.24.24,0,0,0,.05-.48,5.6,5.6,0,0,0-1.73.21c-.16-5.33,3.92-7.28,6.12-7.24.39,0,.2-.37-.09-.37s-1-.24-.75-.46c1.1-1,3.87-.71,4,.05v0a.25.25,0,0,1-.21.27l0,.32c3.84.79,5.9,3.39,5.62,6.44-.55.08-.11.55-.11.55a5.3,5.3,0,0,1,2.34,4.82c-.15,3.19-2,3.86-2.52,3.94a1.54,1.54,0,0,1-.69,2.46c-.4.21-.17.49.2.46a3.63,3.63,0,0,0,2-1.07c5,.28,9.63,1.83,9.18,4.35C80,69,73,72,62.92,71.93a26.91,26.91,0,0,1-11-2.16,12.19,12.19,0,0,0-3.5-6.21C50.69,62.83,53.61,62.16,56.1,63.41Zm-27.85-3a2.1,2.1,0,0,1-2.13-1.46,5.86,5.86,0,0,0-1.22-1.68c-4.85-3.8-5.18-5.19-4.93-10.67,0-.21.06-.4.35-.32a1.25,1.25,0,0,1,.91.9c.09,1,.52,3.72,1.13,4.47,0,0,.52-.39.73-.5-.56-.83-.87-3.23-1-4.12a2.06,2.06,0,0,0-2.17-1.62,11.75,11.75,0,0,0-.9-1.93.86.86,0,0,1,1.35.14,24,24,0,0,1,2.51,3.81c.6,1.39,1.11,2.12,1.5,2.18a.52.52,0,0,0,.43-.21,55.29,55.29,0,0,0-3.67-6.57,3,3,0,0,0-1.08-.93c.28-.49,1.12-.24,1.89.53a25.65,25.65,0,0,1,3.93,6.41s.85-.16.45-1.12a53.17,53.17,0,0,0-3-5.31c1.15.13,2.83,2.36,3.71,4.61a11.76,11.76,0,0,0,.49,3.07,4.1,4.1,0,0,0-.51,1.79,3.07,3.07,0,0,0,.07.65h.32l.38-.51c.48-1.54,1.33-1.51,1.43-1.55a4.8,4.8,0,0,1-.07-4.65c.7-1.07,1.44-.44,1.9,0a6.49,6.49,0,0,0-.22,4.43,11.21,11.21,0,0,1,1.07,3.31c0,1.9-1.37,2.54-.93,3.81s-.65,1.93-.18,2.52c.2.25,1.53-.24,1.45-1.12,0-.38-.12-2.15.57-2.8,3.14,1.29,3.51,6.88-1.71,9.25s-9.87-2.44-6.49-6c0,0,.8,1.18,1.09,1.56a2.25,2.25,0,0,0,1.63.61,2.07,2.07,0,0,0,1.34-.45Zm-4,5.51c4.62,3.39,11.79-.54,12.51-5.75A5.14,5.14,0,0,1,38,61.65c1.39,2.43,1.15,5.92-1.69,8.66C33.19,73.28,25.82,73.14,24.22,65.91Zm3.64,6.88a9,9,0,0,0,12.23-10.2c2,.4,6.32,7.86,2.07,12.64C37,81,29.4,77.21,27.86,72.79Zm8.35,7C42.93,79.7,49,73,43.78,63.36,48.25,64.54,51,68,50.55,74.24,49.92,83.5,40,83.78,36.21,79.79ZM64.87,95c-11.31.1-21.17-5.31-21.8-10.91a9.75,9.75,0,0,0,6.1-2.79c9.36,7.42,28.39,4.09,34.09-1.88C85.64,83.67,83.46,94.78,64.87,95Zm18.51-2a26.15,26.15,0,0,0-.31-2.87,10.2,10.2,0,0,0,2.5-5,8.08,8.08,0,0,0,2.9-2.32C92.85,87.07,88.34,92.57,83.38,93ZM24.91,51.88c-.6,0-1.24.17-1.22.31s.78.09,1.49.42c.44.32,1.19.82,1.3.71s-.16-.83-.3-1.13C25.75,52.23,25.33,51.9,24.91,51.88Zm1.27.31c-.43,0-.85-.29-1.27-.31-.6,0-1.24.17-1.22.31s.78.09,1.49.42c.44.32,1.19.82,1.3.71S26.32,52.49,26.18,52.19Zm0,0c-.43,0-.85-.29-1.27-.31-.6,0-1.24.17-1.22.31s.78.09,1.49.42c.44.32,1.19.82,1.3.71S26.32,52.49,26.18,52.19Zm0,0c-.43,0-.85-.29-1.27-.31-.6,0-1.24.17-1.22.31s.78.09,1.49.42c.44.32,1.19.82,1.3.71S26.32,52.49,26.18,52.19Zm0,0c-.43,0-.85-.29-1.27-.31-.6,0-1.24.17-1.22.31s.78.09,1.49.42c.44.32,1.19.82,1.3.71S26.32,52.49,26.18,52.19Zm0,0c-.43,0-.85-.29-1.27-.31-.6,0-1.24.17-1.22.31s.78.09,1.49.42c.44.32,1.19.82,1.3.71S26.32,52.49,26.18,52.19Zm0,0c-.43,0-.85-.29-1.27-.31-.6,0-1.24.17-1.22.31s.78.09,1.49.42c.44.32,1.19.82,1.3.71S26.32,52.49,26.18,52.19Zm0,0c-.43,0-.85-.29-1.27-.31-.6,0-1.24.17-1.22.31s.78.09,1.49.42c.44.32,1.19.82,1.3.71S26.32,52.49,26.18,52.19Zm0,0c-.43,0-.85-.29-1.27-.31-.6,0-1.24.17-1.22.31s.78.09,1.49.42c.44.32,1.19.82,1.3.71S26.32,52.49,26.18,52.19Z"/><path class="cls-1" d="M26.48,53.32c-.11.11-.86-.39-1.3-.71-.71-.33-1.46-.2-1.49-.42s.62-.31,1.22-.31c.42,0,.84.35,1.27.31C26.32,52.49,26.63,53.17,26.48,53.32Z"/><path class="cls-1" d="M63.61,50.61a4.14,4.14,0,0,0-1.15-2.88,1.77,1.77,0,0,0-1.35-.47C59.8,47.37,58.83,49,58.9,51A4.1,4.1,0,0,0,60,53.82a1.85,1.85,0,0,0,1.35.51C62.7,54.24,63.67,52.61,63.61,50.61Zm-.93,1.71s0,0,0,0,0,0,0,0a4.1,4.1,0,0,0,0-.61c-.05-1.23-.71-2.19-1.47-2.17s-1.33,1-1.27,2.25a3.52,3.52,0,0,0,.13.82s0,0,0,0,0,0,0,0a3.86,3.86,0,0,1-.44-1.68c-.06-1.53.68-2.89,1.61-3a1.17,1.17,0,0,1,.87.31A3.38,3.38,0,0,1,63,50.63,4.32,4.32,0,0,1,62.68,52.32Z"/><path class="cls-1" d="M67.83,56a1.15,1.15,0,0,0-.44.26c-3.5-.63-4.59.32-6.47.27,0-.23-.06-.56-.36-.53-.11,0-.26.27-.32.35-.49.73-.68,1.14-.49,1.31s.46-.11.71-.41a2.71,2.71,0,0,1,1.7.44c.59.4,1.79,1.92,3,1.38.88-.4,1.71-1.91,2.35-1.91a4.94,4.94,0,0,0,.76,0C68.45,57.06,68.16,55.89,67.83,56Zm-2.7,2.37c-1.07.55-1.71-.84-2.75-1.3a11.76,11.76,0,0,1,4.36-.17C66.39,57.15,65.42,58.19,65.13,58.34Z"/><path class="cls-1" d="M69.11,50.38a4.09,4.09,0,0,0-1.22-2.84,1.65,1.65,0,0,0-1.25-.41c-1.24.14-2.1,1.75-2,3.67a4.18,4.18,0,0,0,1.22,2.82,1.73,1.73,0,0,0,1.25.45C68.39,54,69.25,52.34,69.11,50.38Zm-1,2.22h0s0,0,0,0a3.37,3.37,0,0,0,.14-1.13c0-1.24-.69-2.2-1.46-2.15s-1.19.83-1.28,1.84a.09.09,0,0,1,0,.06l0,0c0-.13,0-.26,0-.4-.11-1.49.52-2.83,1.38-2.93a1,1,0,0,1,.78.27,3.45,3.45,0,0,1,1,2.33A4.08,4.08,0,0,1,68.06,52.6Z"/><path class="cls-1" d="M26.48,53.32c-.11.11-.86-.39-1.3-.71-.71-.33-1.46-.2-1.49-.42s.62-.31,1.22-.31c.42,0,.84.35,1.27.31C26.32,52.49,26.63,53.17,26.48,53.32Z"/><path class="cls-1" d="M67.83,56a1.15,1.15,0,0,0-.44.26c-3.5-.63-4.59.32-6.47.27,0-.23-.06-.56-.36-.53-.11,0-.26.27-.32.35-.49.73-.68,1.14-.49,1.31s.46-.11.71-.41a2.71,2.71,0,0,1,1.7.44c.59.4,1.79,1.92,3,1.38.88-.4,1.71-1.91,2.35-1.91a4.94,4.94,0,0,0,.76,0C68.45,57.06,68.16,55.89,67.83,56Zm-2.7,2.37c-1.07.55-1.71-.84-2.75-1.3a11.76,11.76,0,0,1,4.36-.17C66.39,57.15,65.42,58.19,65.13,58.34Z"/><path class="cls-1" d="M69.11,50.38a4.09,4.09,0,0,0-1.22-2.84,1.65,1.65,0,0,0-1.25-.41c-1.24.14-2.1,1.75-2,3.67a4.18,4.18,0,0,0,1.22,2.82,1.73,1.73,0,0,0,1.25.45C68.39,54,69.25,52.34,69.11,50.38Zm-1,2.22h0s0,0,0,0a3.37,3.37,0,0,0,.14-1.13c0-1.24-.69-2.2-1.46-2.15s-1.19.83-1.28,1.84a.09.09,0,0,1,0,.06l0,0c0-.13,0-.26,0-.4-.11-1.49.52-2.83,1.38-2.93a1,1,0,0,1,.78.27,3.45,3.45,0,0,1,1,2.33A4.08,4.08,0,0,1,68.06,52.6Z"/><path class="cls-1" d="M63.61,50.61a4.14,4.14,0,0,0-1.15-2.88,1.77,1.77,0,0,0-1.35-.47C59.8,47.37,58.83,49,58.9,51A4.1,4.1,0,0,0,60,53.82a1.85,1.85,0,0,0,1.35.51C62.7,54.24,63.67,52.61,63.61,50.61Zm-.93,1.71s0,0,0,0,0,0,0,0a4.1,4.1,0,0,0,0-.61c-.05-1.23-.71-2.19-1.47-2.17s-1.33,1-1.27,2.25a3.52,3.52,0,0,0,.13.82s0,0,0,0,0,0,0,0a3.86,3.86,0,0,1-.44-1.68c-.06-1.53.68-2.89,1.61-3a1.17,1.17,0,0,1,.87.31A3.38,3.38,0,0,1,63,50.63,4.32,4.32,0,0,1,62.68,52.32Z"/><path class="cls-1" d="M93.56,87.72H301.8l1.28-3.53H91.84a7,7,0,0,1,.42,2.8,7.57,7.57,0,0,1,1.3.73Z"/></svg>