<svg id="Calque_1" data-name="Calque 1" xmlns="http://www.w3.org/2000/svg" viewBox="0 0 49 49"><title>Reward-rank</title><path id="Shape-Copy-3" d="M47.63,19.3l-1-.7a3.19,3.19,0,0,1-1.25-3.52l.33-1.19a3.24,3.24,0,0,0-2.62-4.06l-1.25-.21A3.19,3.19,0,0,1,39.14,7l-.21-1.25a3.23,3.23,0,0,0-4.09-2.54l-1.19.38a3.27,3.27,0,0,1-3.54-1.19l-.76-1.08A3.22,3.22,0,0,0,24.56.85l-.93.86a3.21,3.21,0,0,1-3.75.44l-1.09-.6a3.28,3.28,0,0,0-4.57,1.63l-.49,1.19a3.12,3.12,0,0,1-3.16,2L9.32,6.31A3.19,3.19,0,0,0,5.94,9.72L6.05,11a3.25,3.25,0,0,1-2,3.19L3,14.65A3.23,3.23,0,0,0,1.37,19.2L2,20.28A3.15,3.15,0,0,1,1.64,24l-.81.92a3.15,3.15,0,0,0,.6,4.77l1,.7a3.19,3.19,0,0,1,1.25,3.52l-.49,1.24a3.24,3.24,0,0,0,2.61,4.06l1.26.22A3.14,3.14,0,0,1,9.75,42L10,43.28a3.22,3.22,0,0,0,4.08,2.54l1.2-.37a3.26,3.26,0,0,1,3.54,1.19l.76,1a3.22,3.22,0,0,0,4.79.49l.92-.86A3.23,3.23,0,0,1,29,46.85l1.09.6a3.28,3.28,0,0,0,4.57-1.63l.49-1.19a3.12,3.12,0,0,1,3.16-2l1.25.06A3.18,3.18,0,0,0,43,39.28L42.9,38a3.25,3.25,0,0,1,2-3.19L46,34.35a3.22,3.22,0,0,0,1.58-4.55l-.65-1.08A3.15,3.15,0,0,1,47.31,25l.81-.92A3.14,3.14,0,0,0,47.63,19.3ZM24.45,39.71A15.21,15.21,0,1,1,39.74,24.5,15.27,15.27,0,0,1,24.45,39.71Zm9.52-17-4.35,3.57,1.31,5.36a1.19,1.19,0,0,1-1.09,1.46.79.79,0,0,1-.6-.22l-4.85-2.92-4.73,2.92a1.64,1.64,0,0,1-.6.22A1.13,1.13,0,0,1,18,31.59l1.31-5.36L15,22.66a1.17,1.17,0,0,1,.71-2.06l5.6-.38,2.12-5.14a1.2,1.2,0,0,1,2.18,0l2.12,5.14,5.61.38A1.18,1.18,0,0,1,34,22.66Z" transform="translate(0 0)"/></svg>