<?xml version="1.0" encoding="UTF-8"?>
<svg width="71px" height="85px" viewBox="0 0 71 85" version="1.1" xmlns="http://www.w3.org/2000/svg" xmlns:xlink="http://www.w3.org/1999/xlink">
    <!-- Generator: Sketch 50.2 (55047) - http://www.bohemiancoding.com/sketch -->
    <title>Icon</title>
    <desc>Created with Sketch.</desc>
    <defs></defs>
    <g id="HP---Desktop" stroke="none" stroke-width="1" fill="none" fill-rule="evenodd">
        <g id="Desktop---Not-logged" transform="translate(-1154.000000, -2671.000000)" fill="#DDDFE2" fill-rule="nonzero" stroke="#DDDFE2" stroke-width="1.5">
            <g id="Key-points-3" transform="translate(82.000000, 2550.000000)">
                <g id="Number-3" transform="translate(1039.000000, 121.000000)">
                    <g id="Icon" transform="translate(33.000000, 0.000000)">
                        <path d="M59.85,64.16 L59.85,70.8210991 L60.7298088,70.8223885 C61.9355137,70.9188448 62.8648002,71.925443 62.8648002,73.135 C62.8648002,74.344557 61.9355137,75.3511552 60.67,75.45 L50.83,75.45 L50.83,84.8902809 L43.81,81.5314292 L36.79,84.8902809 L36.79,75.45 L16.9989662,75.4499993 C12.5893025,75.4439212 9.01607882,71.8706975 9.01,67.46 L9.01000071,13.5189662 C9.01607882,9.1093025 12.5893025,5.53607882 17,5.53 L58.4,5.53 C60.934987,5.53 62.99,7.585013 62.99,10.12 L62.99,61.84 C62.99,63.1213006 61.9513006,64.16 60.67,64.16 L59.85,64.16 Z M13.640269,60.2192074 C14.6881952,59.7326662 15.8346053,59.4780592 17,59.48 L20.85,59.48 L20.85,10.1599996 L17.0018248,10.1599978 C15.1493415,10.1645051 13.6499945,11.6675089 13.65,13.5199978 L13.65,13.5201563 L13.640269,60.2192074 Z M36.79,70.82 L36.79,64.1099666 L17.0369835,64.1090876 C15.2478909,64.1974176 13.8426697,65.6737282 13.8426697,67.465 C13.8426697,69.2562718 15.2478909,70.7325824 17,70.82 L36.79,70.82 Z M46.189222,77.536742 L46.1804888,64.14 L41.41,64.14 L41.41,77.5371161 L43.8,76.3877849 L46.189222,77.536742 Z M55.1954877,70.82 L55.2444718,64.15 L50.83,64.15 L50.83,70.82 L55.1954877,70.82 Z M25.48,59.48 L58.36,59.48 L58.36,10.16 L25.48,10.16 L25.48,59.48 Z" id="Shape" transform="translate(36.000000, 44.990000) rotate(-16.000000) translate(-36.000000, -44.990000) "></path>
                    </g>
                </g>
            </g>
        </g>
    </g>
</svg>