<svg xmlns="http://www.w3.org/2000/svg" viewBox="0 0 29 30"><defs><style>.cls-1,.cls-2{fill:#9a9fa9;}.cls-2{fill-rule:evenodd;}</style></defs><title>icon-translation</title><g id="Calque_2" data-name="Calque 2"><g id="Icon_Translation" data-name="Icon Translation"><path class="cls-1" d="M13.35,5.56a.63.63,0,0,0-.57.67V8h1.14V6.25A.64.64,0,0,0,13.35,5.56Z"/><path class="cls-1" d="M8.43,17.78H2.32V2.22H16.24V8h2.32V2.22A2.28,2.28,0,0,0,16.24,0H2.32A2.28,2.28,0,0,0,0,2.22V17.78A2.28,2.28,0,0,0,2.32,20H8.43Z"/><path class="cls-1" d="M4.79,9.91a.77.77,0,0,0-.15.51,4.73,4.73,0,0,0,1.41,3,3.45,3.45,0,0,0,2.35,1h0V13.08a2.36,2.36,0,0,1-1.66-.71A3.09,3.09,0,0,1,5.93,11H8.62a4.21,4.21,0,0,1,.69-1.35H5.21A.51.51,0,0,0,4.79,9.91Z"/><path class="cls-1" d="M8.08,5.57a.65.65,0,0,0-.52.72.61.61,0,0,0,.61.62,2.74,2.74,0,0,1,2.52,1.62,4.55,4.55,0,0,1,1.1-.42A3.87,3.87,0,0,0,8.08,5.57Z"/><g id="Traduction"><path class="cls-2" d="M20.43,16a.77.77,0,0,0-.68-.4.76.76,0,0,0-.68.4l-3.91,7.43a.74.74,0,0,0,.68,1.05.74.74,0,0,0,.68-.4l1.35-2.55h3.78l1.27,2.39a.77.77,0,0,0,1,.32.71.71,0,0,0,.34-1ZM18.63,20l1.12-2.12L20.87,20Z"/><path class="cls-2" d="M26.68,10H12.76a2.28,2.28,0,0,0-2.32,2.22V27.78A2.28,2.28,0,0,0,12.76,30H26.68A2.28,2.28,0,0,0,29,27.78V12.22A2.28,2.28,0,0,0,26.68,10ZM12.76,27.78V12.22H26.68V27.78Z"/></g></g></g></svg>