<svg xmlns="http://www.w3.org/2000/svg" viewBox="0 0 22 29"><g data-name="Calque 2"><g data-name="Icon test article" fill="#9a9fa9"><path d="M14.67 17.61H7.33a1.22 1.22 0 0 1 0-2.44h7.34a1.22 1.22 0 0 1 0 2.44zm0 5.05H7.33a1.23 1.23 0 0 1 0-2.45h7.34a1.23 1.23 0 0 1 0 2.45z"/><path d="M19.56 6.3h-2.45V3.78h-1.39A4.92 4.92 0 0 0 11 0a4.92 4.92 0 0 0-4.72 3.78H4.89V6.3H2.44A2.5 2.5 0 0 0 0 8.83v17.65A2.49 2.49 0 0 0 2.44 29h17.12A2.49 2.49 0 0 0 22 26.48V8.83a2.5 2.5 0 0 0-2.44-2.53zM11 2.52a2.46 2.46 0 0 1 2.12 1.26H8.88A2.46 2.46 0 0 1 11 2.52zM7.33 6.3h7.34v2.53H7.33zm12.23 20.18H2.44V8.83h2.45v2.52h12.22V8.83h2.45z" fill-rule="evenodd"/></g></g></svg>