<svg xmlns="http://www.w3.org/2000/svg" viewBox="0 0 28.66 26.63"><defs><style>.cls-1,.cls-2{fill:#9a9fa9;}.cls-2{fill-rule:evenodd;}</style></defs><title>icon-writ-proof</title><g id="Calque_2" data-name="Calque 2"><g id="Icon_Writing_proofreading" data-name="Icon Writing proofreading"><path class="cls-1" d="M13.07,21.12H2.61V2.64H18.26V11.2h2.61V2.64A2.62,2.62,0,0,0,18.26,0H2.61A2.62,2.62,0,0,0,0,2.64V21.12a2.63,2.63,0,0,0,2.61,2.64H13.07Z"/><path class="cls-1" d="M15,7.66H5.82a1.34,1.34,0,0,0,0,2.67H15a1.34,1.34,0,0,0,0-2.67Z"/><path class="cls-1" d="M5.82,16.78h7.25V14.2a.36.36,0,0,1,0-.1H5.82a1.34,1.34,0,0,0,0,2.68Z"/><path id="Search" class="cls-2" d="M19.89,19.1,18.83,18,17.66,19.2l2.23,2.26,3.88-3.92L22.6,16.36Zm8.64,6.44a.69.69,0,0,1-.05.86.7.7,0,0,1-.91.11l-3.65-3.69a5.39,5.39,0,0,1-7.17-.46,5.53,5.53,0,0,1,0-7.78,5.41,5.41,0,0,1,7.7,0,5.54,5.54,0,0,1,.43,7.28ZM17.71,21.38a4.17,4.17,0,0,1,0-5.83,4.08,4.08,0,0,1,5.78,0,4.17,4.17,0,0,1,0,5.83,4.06,4.06,0,0,1-5.78,0Z"/></g></g></svg>