<?xml version="1.0" encoding="UTF-8"?>
<svg width="40px" height="41px" viewBox="0 0 40 41" version="1.1" xmlns="http://www.w3.org/2000/svg" xmlns:xlink="http://www.w3.org/1999/xlink">
    <!-- Generator: Sketch 50.2 (55047) - http://www.bohemiancoding.com/sketch -->
    <title>Icon</title>
    <desc>Created with Sketch.</desc>
    <defs></defs>
    <g id="HP---Desktop" stroke="none" stroke-width="1" fill="none" fill-rule="evenodd">
        <g id="Desktop---Not-logged" transform="translate(-576.000000, -1528.000000)" fill-rule="nonzero" stroke="#00BCDC" stroke-width="3">
            <g id="Key-points" transform="translate(81.000000, 1364.000000)">
                <g id="Card-2" transform="translate(359.000000, 130.000000)">
                    <path d="M137.511902,51.525913 C137.320316,48.8437019 139.466084,46.5446638 142.186613,46.5446638 C144.907141,46.5446638 147.05291,48.8437019 146.861324,51.5642303 L145.596853,69.3817754 C145.481901,71.1826886 143.987526,72.5621114 142.186613,72.5621114 C140.3857,72.5621114 138.929642,71.1826886 138.776373,69.3817754 L137.511902,51.525913 Z M142.186613,44.1689911 C144.562286,44.1689911 146.516468,42.2531261 146.516468,39.8391361 C146.516468,37.4634634 144.600603,35.509281 142.186613,35.509281 C139.772623,35.509281 137.895075,37.4634634 137.895075,39.8391361 C137.895075,42.2531261 139.81094,44.1689911 142.186613,44.1689911 Z M151.306131,51.525913 L152.570602,69.3817754 C152.685553,71.1826886 154.179928,72.5621114 155.980841,72.5621114 C157.781755,72.5621114 159.237812,71.1826886 159.391081,69.3817754 L160.693869,51.525913 C160.885456,48.8053846 158.739687,46.5063465 156.019159,46.5063465 C153.260313,46.5446638 151.114544,48.8437019 151.306131,51.525913 Z M155.980841,44.1689911 C158.356514,44.1689911 160.310696,42.2531261 160.310696,39.8391361 C160.310696,37.4634634 158.394831,35.509281 155.980841,35.509281 C153.566851,35.509281 151.650986,37.4251461 151.650986,39.8391361 C151.650986,42.2531261 153.605169,44.1689911 155.980841,44.1689911 Z M165.062042,51.525913 L166.36483,69.3817754 C166.479782,71.1826886 167.974157,72.5621114 169.77507,72.5621114 C171.575983,72.5621114 173.03204,71.1826886 173.18531,69.3817754 L174.488098,51.525913 C174.679684,48.8053846 172.533916,46.5063465 169.813387,46.5063465 C167.054541,46.5446638 164.908773,48.8437019 165.062042,51.525913 Z M169.77507,44.1689911 C172.150743,44.1689911 174.104925,42.2531261 174.104925,39.8391361 C174.104925,37.4634634 172.18906,35.509281 169.77507,35.509281 C167.36108,35.509281 165.445215,37.4251461 165.445215,39.8391361 C165.445215,42.2531261 167.399397,44.1689911 169.77507,44.1689911 Z" id="Icon"></path>
                </g>
            </g>
        </g>
    </g>
</svg>