<svg id="Calque_1" data-name="Calque 1" xmlns="http://www.w3.org/2000/svg" viewBox="0 0 371 133"><defs><style>.cls-1{fill:#9a9fa9;}</style></defs><title>Plan de travail 1 copie 2</title><path class="cls-1" d="M55.39,54.47a15.19,15.19,0,0,1-6.8,9.9H61.85v-9.9ZM35,54.47v9.9h4.19c7.47,0,12-4,13.76-9.9ZM53.37,52a9.53,9.53,0,0,0,.17-2.27V42.14H43.47v5.7A7.07,7.07,0,0,1,42.38,52ZM42.47,66.8V83.58c0,8,5,12.75,13.08,12.75a16.3,16.3,0,0,0,6.3-1V86.1a16.85,16.85,0,0,1-3.44.33c-3.19,0-4.87-1.17-4.87-4.78V66.8ZM94.14,54.3c-.83-.08-1.67-.17-2.6-.17-3.52,0-9.22,1-11.74,6.46V54.47H69V95.74H80.13V76.87c0-8.89,5-11.66,10.66-11.66a16.75,16.75,0,0,1,3.35.33Zm4.2,30.2c0,6.46,5.37,12.42,14.18,12.42,6.12,0,10.06-2.85,12.16-6.13a28.05,28.05,0,0,0,.42,4.95h10.24a44.8,44.8,0,0,1-.51-6.54V68.9c0-8.31-4.86-15.69-18-15.69-11.07,0-17,7.13-17.7,13.59l9.9,2.1c.33-3.61,3-6.71,7.88-6.71,4.7,0,7,2.43,7,5.37,0,1.42-.76,2.6-3.11,2.93L110.67,72c-6.88,1-12.33,5.12-12.33,12.5m16.53,4.11c-3.61,0-5.37-2.35-5.37-4.78,0-3.19,2.26-4.78,5.11-5.2l9.32-1.43v1.85c0,7.3-4.37,9.56-9.06,9.56m190.68-18.2a8.93,8.93,0,0,1,9.23-8.14c6.38,0,9.06,4,9.23,8.14ZM325.1,81.15c-1.34,3.69-4.19,6.29-9.4,6.29-5.53,0-10.15-4-10.4-9.4h29.53c0-.17.17-1.84.17-3.44,0-13.25-7.63-21.39-20.39-21.39-10.57,0-20.3,8.56-20.3,21.73,0,13.92,10,22.06,21.31,22.06,10.15,0,16.69-6,18.79-13.09l-9.31-2.76ZM154.38,54.47H143.22V95.74h11.16ZM141.88,41a6.88,6.88,0,1,0,6.88-7,6.9,6.9,0,0,0-6.88,7M242.63,54.47H231.48V95.74h11.15ZM230.13,41A6.88,6.88,0,1,0,237,34a6.9,6.9,0,0,0-6.88,7M173.84,72c0-4.78,2.86-8.56,7.72-8.56,5.37,0,7.63,3.61,7.63,8.23V95.74h11.16v-26c0-9.06-4.7-16.36-14.93-16.36-4.45,0-9.4,1.93-11.91,6.21V54.47H162.68V95.74h11.16ZM262,72c0-4.78,2.86-8.56,7.72-8.56,5.37,0,7.64,3.61,7.64,8.23V95.74h11.15v-26c0-9.06-4.69-16.36-14.93-16.36-4.45,0-9.4,1.93-11.91,6.21V54.47H250.86V95.74H262ZM225.27,86.35a17,17,0,0,1-1.93.08c-2.77,0-4.78-1-4.78-4.61V35h-11V83.66c0,8,5,12.67,13.08,12.67a20.84,20.84,0,0,0,4.62-.5Z"/></svg>