<?xml version="1.0" encoding="UTF-8"?>
<svg width="38px" height="33px" viewBox="0 0 38 33" version="1.1" xmlns="http://www.w3.org/2000/svg" xmlns:xlink="http://www.w3.org/1999/xlink">
    <!-- Generator: Sketch 50.2 (55047) - http://www.bohemiancoding.com/sketch -->
    <title>icon</title>
    <desc>Created with Sketch.</desc>
    <defs></defs>
    <g id="HP---Desktop" stroke="none" stroke-width="1" fill="none" fill-rule="evenodd">
        <g id="Desktop---Not-logged" transform="translate(-246.000000, -1533.000000)" fill="#00BCDC">
            <g id="Key-points" transform="translate(81.000000, 1364.000000)">
                <g id="Card-1" transform="translate(30.000000, 130.000000)">
                    <path d="M166.061182,68.096013 L153.443086,68.096013 L145.85739,65.0613726 L145.85739,55.4290584 L147.666955,55.4290584 C148.388971,55.4290584 149.044033,54.998382 149.328135,54.3324621 L154.288153,42.7621039 L156.714779,42.7621039 L156.714779,50.0003636 C156.714779,50.9992435 157.523655,51.8099286 158.524344,51.8099286 L169.02163,51.8099286 L166.061182,68.096013 Z M142.23826,68.096013 L138.61913,68.096013 L138.61913,53.6194935 L142.23826,53.6194935 L142.23826,68.096013 Z M172.579235,48.8404325 C172.235418,48.4296613 171.72693,48.1907987 171.191299,48.1907987 L160.333909,48.1907987 L160.333909,40.952539 C160.333909,39.9536591 159.523224,39.142974 158.524344,39.142974 L153.095649,39.142974 C152.371823,39.142974 151.716761,39.5736505 151.432659,40.2395704 L146.472642,51.8099286 L145.85739,51.8099286 C145.85739,50.8110487 145.046705,50.0003636 144.047825,50.0003636 L136.809565,50.0003636 C135.808876,50.0003636 135,50.8110487 135,51.8099286 L135,69.9055779 C135,70.9044578 135.808876,71.7151429 136.809565,71.7151429 L144.047825,71.7151429 C145.046705,71.7151429 145.85739,70.9044578 145.85739,69.9055779 L145.85739,68.960985 L152.422491,71.5866637 C152.63602,71.6717133 152.864025,71.7151429 153.095649,71.7151429 L167.572169,71.7151429 C168.446189,71.7151429 169.195349,71.0890334 169.350971,70.22949 L172.970101,50.3242758 C173.067818,49.7958828 172.923052,49.2530133 172.579235,48.8404325 L172.579235,48.8404325 Z" id="icon"></path>
                </g>
            </g>
        </g>
    </g>
</svg>